{
  "accessors": [
    {
      "bufferView": 2,
      "componentType": 5126,
      "count": 4410,
      "max": [
        4.7702221870422363,
        4.9274501800537109,
        15.925331115722656
      ],
      "min": [
        -4.0915689468383789,
        -4.1116480827331543,
        0
      ],
      "type": "VEC3"
    },
    {
      "bufferView": 2,
      "byteOffset": 52920,
      "componentType": 5126,
      "count": 4410,
      "max": [
        0.99988937377929688,
        0.99998772144317627,
        0.99995231628417969
      ],
      "min": [
        -0.99999105930328369,
        -0.99999547004699707,
        -0.99997329711914062
      ],
      "type": "VEC3"
    },
    {
      "bufferView": 1,
      "componentType": 5126,
      "count": 4410,
      "max": [
        1,
        1
      ],
      "min": [
        0,
        0
      ],
      "type": "VEC2"
    },
    {
      "bufferView": 0,
      "componentType": 5125,
      "count": 22080,
      "max": [
        4409
      ],
      "min": [
        0
      ],
      "type": "SCALAR"
    },
    {
      "bufferView": 2,
      "byteOffset": 105840,
      "componentType": 5126,
      "count": 7100,
      "max": [
        5.4583182334899902,
        5.5768203735351562,
        16.650955200195312
      ],
      "min": [
        -4.6686563491821289,
        -4.622133731842041,
        3.2328832149505615
      ],
      "type": "VEC3"
    },
    {
      "bufferView": 2,
      "byteOffset": 191040,
      "componentType": 5126,
      "count": 7100,
      "max": [
        0.99044018983840942,
        0.99044144153594971,
        0.99536442756652832
      ],
      "min": [
        -0.99044090509414673,
        -0.99044144153594971,
        -0.99514514207839966
      ],
      "type": "VEC3"
    },
    {
      "bufferView": 1,
      "byteOffset": 35280,
      "componentType": 5126,
      "count": 7100,
      "max": [
        0.75,
        1
      ],
      "min": [
        0.25,
        0
      ],
      "type": "VEC2"
    },
    {
      "bufferView": 0,
      "byteOffset": 88320,
      "componentType": 5125,
      "count": 10650,
      "max": [
        7099
      ],
      "min": [
        0
      ],
      "type": "SCALAR"
    }
  ],
  "asset": {
    "extras": {
      "author": "TanishaBerry (https://sketchfab.com/TanishaBerry)",
      "license": "CC-BY-4.0 (http://creativecommons.org/licenses/by/4.0/)",
      "source": "https://sketchfab.com/3d-models/sweet-tree-b8e30834ed2e4fd3a12fa24075bbc914",
      "title": "Sweet Tree"
    },
    "generator": "Sketchfab-8.51.0",
    "version": "2.0"
  },
  "bufferViews": [
    {
      "buffer": 0,
      "byteLength": 130920,
      "byteOffset": 0,
      "name": "floatBufferViews",
      "target": 34963
    },
    {
      "buffer": 0,
      "byteLength": 92080,
      "byteOffset": 130920,
      "byteStride": 8,
      "name": "floatBufferViews",
      "target": 34962
    },
    {
      "buffer": 0,
      "byteLength": 276240,
      "byteOffset": 223000,
      "byteStride": 12,
      "name": "floatBufferViews",
      "target": 34962
    }
  ],
  "buffers": [
    {
      "byteLength": 499240,
      "uri": "scene.bin"
    }
  ],
  "images": [
    {
      "uri": "textures/Leaves_baseColor.png"
    }
  ],
  "materials": [
    {
      "doubleSided": true,
      "emissiveFactor": [
        0,
        0,
        0
      ],
      "name": "Base",
      "pbrMetallicRoughness": {
        "baseColorFactor": [
          0.088051740370179071,
          0.059983306274174558,
          0.059983306274174558,
          1
        ],
        "metallicFactor": 0,
        "roughnessFactor": 1
      }
    },
    {
      "alphaMode": "BLEND",
      "doubleSided": true,
      "name": "Leaves",
      "pbrMetallicRoughness": {
        "baseColorFactor": [
          1,
          1,
          1,
          1
        ],
        "baseColorTexture": {
          "index": 0,
          "texCoord": 0
        },
        "metallicFactor": 0,
        "roughnessFactor": 1
      }
    }
  ],
  "meshes": [
    {
      "name": "tree_Base_0",
      "primitives": [
        {
          "attributes": {
            "NORMAL": 1,
            "POSITION": 0,
            "TEXCOORD_0": 2
          },
          "indices": 3,
          "material": 0,
          "mode": 4
        }
      ]
    },
    {
      "name": "leaves_Leaves_0",
      "primitives": [
        {
          "attributes": {
            "NORMAL": 5,
            "POSITION": 4,
            "TEXCOORD_0": 6
          },
          "indices": 7,
          "material": 1,
          "mode": 4
        }
      ]
    }
  ],
  "nodes": [
    {
      "children": [
        1
      ],
      "name": "RootNode (gltf orientation matrix)",
      "rotation": [
        -0.70710678118654746,
        -0,
        -0,
        0.70710678118654757
      ]
    },
    {
      "children": [
        2
      ],
      "name": "RootNode (model correction matrix)"
    },
    {
      "children": [
        3
      ],
      "matrix": [
        1,
        0,
        0,
        0,
        0,
        0,
        1,
        0,
        0,
        -1,
        0,
        0,
        0,
        0,
        0,
        1
      ],
      "name": "0cb47cabf1694497a0318754c3d8ff76.fbx"
    },
    {
      "children": [
        4
      ],
      "name": "RootNode"
    },
    {
      "children": [
        5,
        6
      ],
      "matrix": [
        100,
        0,
        0,
        0,
        0,
        -1.6292067939183141e-05,
        -99.999999999998678,
        0,
        0,
        99.999999999998678,
        -1.6292067939183141e-05,
        0,
        0,
        0,
        0,
        1
      ],
      "name": "tree"
    },
    {
      "mesh": 0,
      "name": "tree_Base_0"
    },
    {
      "children": [
        7
      ],
      "matrix": [
        1,
        0,
        0,
        0,
        0,
        1,
        -2.646977960169688e-23,
        0,
        0,
        2.646977960169688e-23,
        1,
        0,
        0,
        0,
        0,
        1
      ],
      "name": "leaves"
    },
    {
      "mesh": 1,
      "name": "leaves_Leaves_0"
    }
  ],
  "samplers": [
    {
      "magFilter": 9729,
      "minFilter": 9987,
      "wrapS": 10497,
      "wrapT": 10497
    }
  ],
  "scene": 0,
  "scenes": [
    {
      "name": "OSG_Scene",
      "nodes": [
        0
      ]
    }
  ],
  "textures": [
    {
      "sampler": 0,
      "source": 0
    }
  ]
}

